# xmcd
#
# Track frame offsets:
#	150
#	22752
#	44612
#	62847
#	82962
#	100707
#	120062
#	133567
#	153352
#	175935
#	194192
#	209100
#	225442
#
# Disc length: 3289 seconds
#
# Revision: 7
# Processed by: cddbd v1.5.2PL0 Copyright (c) Steve Scherf et al.
# Submitted via: EasyCDDAExtractor 15.3.0.1
#
DISCID=a60cd70d
DTITLE=Gloria Estefan - Alma Caribeña
DYEAR=2000
DGENRE=Latin
TTITLE0=Por Un Beso
TTITLE1=Punto De Referencia
TTITLE2=Dame Otra Oportunidad
TTITLE3=Como Me Duele Perderte
TTITLE4=Te Tengo A Ti
TTITLE5=Tres Gotas De Agua Bendita
TTITLE6=Nuestra Felicidad
TTITLE7=La Flor Y Tu Amor
TTITLE8=Me Voy
TTITLE9=Solo Por Tu Amor
TTITLE10=Tengo Que Decirte Algo
TTITLE11=No Me Dejes De Querer
TTITLE12=No Me Dejes De Querer (''Flores'' Del Caribe Mix)
EXTD=YEAR: 2000
EXTT0=
EXTT1=
EXTT2=
EXTT3=
EXTT4=
EXTT5=
EXTT6=
EXTT7=
EXTT8=
EXTT9=
EXTT10=
EXTT11=
EXTT12=
PLAYORDER=
